<svg>
    <svg id="thumb_up" fill="none" xmlns="http://www.w3.org/2000/svg">
        <path
            d="M2 42H10V18H2V42ZM46 20C46 17.79 44.21 16 42 16H29.37L31.28 6.86C31.32 6.66 31.35 6.45 31.35 6.23C31.35 5.4 31.01 4.65 30.47 4.11L28.34 2L15.17 15.17C14.45 15.9 14 16.9 14 18V38C14 40.21 15.79 42 18 42H36C37.66 42 39.08 40.99 39.68 39.56L45.71 25.46C45.89 25 46 24.51 46 24V20.17L45.98 20.15L46 20Z"
            fill="currentColor" />
    </svg>

    <svg id="save" fill="none" xmlns="http://www.w3.org/2000/svg">
        <path
            d="M34 6H10C7.79 6 6 7.79 6 10V38C6 40.21 7.79 42 10 42H38C40.21 42 42 40.21 42 38V14L34 6ZM24 38C20.69 38 18 35.31 18 32C18 28.69 20.69 26 24 26C27.31 26 30 28.69 30 32C30 35.31 27.31 38 24 38ZM30 18H10V10H30V18Z"
            fill="currentColor" />

    </svg>

    <svg id="puzzle-color" fill="none" xmlns="http://www.w3.org/2000/svg">
        <path
            d="M18.5485 4.68386C18.7211 4.06469 18.5235 2.54349 19.7298 1.53679C20.936 0.53008 22.8124 0.654805 23.9415 1.71274C25.0705 2.77067 25.2522 4.75959 23.9165 6.0692C22.5807 7.37881 21.9651 6.64828 21.22 7.35431C20.4749 8.06034 20.6044 8.63942 21.0655 9.06705C21.5289 9.49468 26.1268 14.2053 25.9973 14.5059C25.8678 14.8066 22.7352 18.2833 22.2218 18.535C21.7084 18.7867 20.8088 18.7622 20.6294 17.9314C20.4499 17.1007 20.7588 15.4391 19.4731 15.0093C18.1896 14.5817 17.6239 14.9336 16.3654 16.2432C15.1069 17.5528 14.5413 18.9871 15.5681 19.7177C16.5949 20.4482 17.8806 20.1453 18.394 21.0028C18.9074 21.8602 18.1373 22.6398 16.7766 23.8737C15.4159 25.1075 14.3618 26.1143 14.1823 25.9895C14.0029 25.8626 10.0979 21.809 9.71397 21.3814C9.32779 20.9538 8.58268 20.5751 7.86483 21.2299C7.14471 21.8847 7.01749 24.0251 3.98708 24.0251C0.956672 24.0251 0.593205 20.8023 1.67225 19.4682C2.75129 18.1341 5.13882 18.0071 5.19107 17.1007C5.21379 16.6842 3.90303 15.5616 2.72631 14.3567C1.34286 12.938 0.0570901 11.4346 0.00256999 11.2586C-0.0996553 10.9312 2.87851 8.06034 3.44415 7.65721C4.0098 7.25408 4.65041 7.50576 4.95936 7.83316C5.26831 8.16057 5.34554 9.16727 5.60224 9.74635C5.85894 10.3254 7.0652 12.8444 9.9684 9.97353C12.8443 7.12713 10.1229 5.89325 9.1983 5.64157C8.27373 5.38989 7.60813 5.30749 7.34916 4.38319C7.14471 3.65265 8.27373 2.7974 9.455 1.68824C10.6363 0.579079 11.3291 0 11.6381 0C11.947 0 16.0815 4.35646 16.6221 4.85981C17.1628 5.36317 17.4944 5.49012 17.8806 5.38767C18.2645 5.28967 18.4713 4.96227 18.5485 4.68386Z"
            fill="url(#paint0_radial_201_128)" />
        <defs>
            <radialGradient id="paint0_radial_201_128" cx="0" cy="0" r="1" gradientUnits="userSpaceOnUse"
                gradientTransform="translate(12.654 -7.18504) scale(27.084 26.5541)">
                <stop offset="0.508" stop-color="#B7D118" />
                <stop offset="0.572" stop-color="#B2D019" />
                <stop offset="0.643" stop-color="#A5CD1D" />
                <stop offset="0.717" stop-color="#8FC922" />
                <stop offset="0.793" stop-color="#70C22A" />
                <stop offset="0.871" stop-color="#48BA34" />
                <stop offset="0.949" stop-color="#18B040" />
                <stop offset="0.981" stop-color="#02AB46" />
            </radialGradient>
        </defs>
    </svg>

    <svg id="puzzle-shape" fill="none" xmlns="http://www.w3.org/2000/svg">
        <g filter="url(#filter0_i_201_110)">
            <path
                d="M18.5485 4.68386C18.7211 4.06469 18.5235 2.54349 19.7298 1.53679C20.936 0.53008 22.8124 0.654805 23.9415 1.71274C25.0705 2.77067 25.2522 4.75959 23.9165 6.0692C22.5807 7.37881 21.9651 6.64828 21.22 7.35431C20.4749 8.06034 20.6044 8.63942 21.0655 9.06705C21.5289 9.49468 26.1268 14.2053 25.9973 14.5059C25.8678 14.8066 22.7352 18.2833 22.2218 18.535C21.7084 18.7867 20.8088 18.7622 20.6294 17.9314C20.4499 17.1007 20.7588 15.4391 19.4731 15.0093C18.1896 14.5817 17.6239 14.9336 16.3654 16.2432C15.1069 17.5528 14.5413 18.9871 15.5681 19.7177C16.5949 20.4482 17.8806 20.1453 18.394 21.0028C18.9074 21.8602 18.1373 22.6398 16.7766 23.8737C15.4159 25.1075 14.3618 26.1143 14.1823 25.9895C14.0029 25.8626 10.0979 21.809 9.71397 21.3814C9.32779 20.9538 8.58268 20.5751 7.86483 21.2299C7.14471 21.8847 7.01749 24.0251 3.98708 24.0251C0.956672 24.0251 0.593205 20.8023 1.67225 19.4682C2.75129 18.1341 5.13882 18.0071 5.19107 17.1007C5.21379 16.6842 3.90303 15.5616 2.72631 14.3567C1.34286 12.938 0.0570901 11.4346 0.00256999 11.2586C-0.0996553 10.9312 2.87851 8.06034 3.44415 7.65721C4.0098 7.25408 4.65041 7.50576 4.95936 7.83316C5.26831 8.16057 5.34554 9.16727 5.60224 9.74635C5.85894 10.3254 7.0652 12.8444 9.9684 9.97353C12.8443 7.12713 10.1229 5.89325 9.1983 5.64157C8.27373 5.38989 7.60813 5.30749 7.34916 4.38319C7.14471 3.65265 8.27373 2.7974 9.455 1.68824C10.6363 0.579079 11.3291 0 11.6381 0C11.947 0 16.0815 4.35646 16.6221 4.85981C17.1628 5.36317 17.4944 5.49012 17.8806 5.38767C18.2645 5.28967 18.4713 4.96227 18.5485 4.68386Z"
                fill="#E9ECED" />
        </g>
        <defs>
            <filter id="filter0_i_201_110" x="0" y="0" width="26" height="27" filterUnits="userSpaceOnUse"
                color-interpolation-filters="sRGB">
                <feFlood flood-opacity="0" result="BackgroundImageFix" />
                <feBlend mode="normal" in="SourceGraphic" in2="BackgroundImageFix" result="shape" />
                <feColorMatrix in="SourceAlpha" type="matrix" values="0 0 0 0 0 0 0 0 0 0 0 0 0 0 0 0 0 0 127 0"
                    result="hardAlpha" />
                <feOffset dy="1" />
                <feGaussianBlur stdDeviation="0.5" />
                <feComposite in2="hardAlpha" operator="arithmetic" k2="-1" k3="1" />
                <feColorMatrix type="matrix" values="0 0 0 0 0 0 0 0 0 0 0 0 0 0 0 0 0 0 0.13 0" />
                <feBlend mode="normal" in2="shape" result="effect1_innerShadow_201_110" />
            </filter>
        </defs>
    </svg>

    <svg id="magic-ball-color" fill="none" xmlns="http://www.w3.org/2000/svg">
        <path
            d="M21.0369 18.4848C20.8394 18.4042 20.6226 18.383 20.4131 18.4237C20.2037 18.4644 20.0107 18.5652 19.8579 18.7137L19.7222 18.849C18.5553 20.0367 17.1623 20.9798 15.625 21.6233C14.0877 22.2667 12.4371 22.5974 10.77 22.5959C9.10264 22.5718 7.45663 22.218 5.92717 21.5552C4.39771 20.8924 3.01517 19.9337 1.85951 18.7345C1.71102 18.5759 1.51653 18.4676 1.30326 18.4246C1.08998 18.3817 0.868589 18.4064 0.670056 18.4952C0.461888 18.5747 0.284741 18.7187 0.164572 18.906C0.0444034 19.0933 -0.0124688 19.3141 0.00228981 19.536V24.9592C0.00228981 25.2352 0.112218 25.5 0.30789 25.6952C0.503563 25.8903 0.768951 26 1.04567 26H20.6196C20.8963 26 21.1617 25.8903 21.3573 25.6952C21.553 25.5 21.6629 25.2352 21.6629 24.9592V19.4839C21.672 19.2738 21.6171 19.0658 21.5053 18.8875C21.3936 18.7091 21.2303 18.5687 21.0369 18.4848Z"
            fill="url(#paint0_linear_201_104)" />
        <path
            d="M10.8536 0C8.70748 0 6.60951 0.63484 4.82504 1.82424C3.04057 3.01364 1.64975 4.70418 0.828444 6.68208C0.00714305 8.65998 -0.207747 10.8364 0.210949 12.9361C0.629645 15.0359 1.66312 16.9646 3.18069 18.4784C4.69825 19.9922 6.63175 21.0232 8.73668 21.4408C10.8416 21.8585 13.0234 21.6441 15.0062 20.8248C16.989 20.0056 18.6837 18.6182 19.8761 16.8381C21.0684 15.0581 21.7048 12.9653 21.7048 10.8244C21.6993 7.95528 20.5543 5.20525 18.5205 3.17647C16.4867 1.14769 13.7299 0.00550168 10.8536 0Z"
            fill="url(#paint1_radial_201_104)" />
        <defs>
            <linearGradient id="paint0_linear_201_104" x1="10.832" y1="18.4035" x2="10.832" y2="27.061"
                gradientUnits="userSpaceOnUse">
                <stop stop-color="#FFB500" />
                <stop offset="1" stop-color="#FFE052" />
            </linearGradient>
            <radialGradient id="paint1_radial_201_104" cx="0" cy="0" r="1" gradientUnits="userSpaceOnUse"
                gradientTransform="translate(10.8536 21.6406) rotate(90) scale(16.0758 16.1156)">
                <stop offset="0.015625" stop-color="#7F12F4" />
                <stop offset="1" stop-color="#E0C5FF" />
            </radialGradient>
        </defs>
    </svg>

    <svg id="magic-ball-shape" fill="none" xmlns="http://www.w3.org/2000/svg">
        <g filter="url(#filter0_i_201_111)">
            <path
                d="M26.0369 21.4847C25.8394 21.4042 25.6226 21.383 25.4131 21.4237C25.2037 21.4644 25.0107 21.5652 24.8579 21.7137L24.7222 21.849C23.5553 23.0366 22.1623 23.9798 20.625 24.6232C19.0877 25.2667 17.4371 25.5974 15.77 25.5959C14.1026 25.5717 12.4566 25.218 10.9272 24.5552C9.39771 23.8924 8.01517 22.9337 6.85951 21.7345C6.71102 21.5759 6.51653 21.4675 6.30326 21.4246C6.08998 21.3817 5.86859 21.4064 5.67006 21.4951C5.46189 21.5747 5.28474 21.7187 5.16457 21.906C5.0444 22.0933 4.98753 22.3141 5.00229 22.536V27.9592C5.00229 28.2352 5.11222 28.5 5.30789 28.6951C5.50356 28.8903 5.76895 29 6.04567 29H25.6196C25.8963 29 26.1617 28.8903 26.3573 28.6951C26.553 28.5 26.6629 28.2352 26.6629 27.9592V22.4839C26.672 22.2738 26.6171 22.0658 26.5053 21.8874C26.3936 21.7091 26.2303 21.5687 26.0369 21.4847Z"
                fill="#E9ECED" />
        </g>
        <g filter="url(#filter1_i_201_111)">
            <path
                d="M15.8536 3C13.7075 3 11.6095 3.63484 9.82504 4.82424C8.04057 6.01364 6.64975 7.70418 5.82844 9.68208C5.00714 11.66 4.79225 13.8364 5.21095 15.9361C5.62964 18.0359 6.66312 19.9646 8.18069 21.4784C9.69825 22.9922 11.6318 24.0232 13.7367 24.4408C15.8416 24.8585 18.0234 24.6441 20.0062 23.8248C21.989 23.0056 23.6837 21.6182 24.8761 19.8381C26.0684 18.0581 26.7048 15.9653 26.7048 13.8244C26.6993 10.9553 25.5543 8.20525 23.5205 6.17647C21.4867 4.14769 18.7299 3.0055 15.8536 3Z"
                fill="#E9ECED" />
        </g>
        <defs>
            <filter id="filter0_i_201_111" x="5" y="21.4035" width="21.6641" height="8.59647"
                filterUnits="userSpaceOnUse" color-interpolation-filters="sRGB">
                <feFlood flood-opacity="0" result="BackgroundImageFix" />
                <feBlend mode="normal" in="SourceGraphic" in2="BackgroundImageFix" result="shape" />
                <feColorMatrix in="SourceAlpha" type="matrix" values="0 0 0 0 0 0 0 0 0 0 0 0 0 0 0 0 0 0 127 0"
                    result="hardAlpha" />
                <feOffset dy="1" />
                <feGaussianBlur stdDeviation="0.5" />
                <feComposite in2="hardAlpha" operator="arithmetic" k2="-1" k3="1" />
                <feColorMatrix type="matrix" values="0 0 0 0 0 0 0 0 0 0 0 0 0 0 0 0 0 0 0.13 0" />
                <feBlend mode="normal" in2="shape" result="effect1_innerShadow_201_111" />
            </filter>
            <filter id="filter1_i_201_111" x="5.00244" y="3" width="21.7026" height="22.6488"
                filterUnits="userSpaceOnUse" color-interpolation-filters="sRGB">
                <feFlood flood-opacity="0" result="BackgroundImageFix" />
                <feBlend mode="normal" in="SourceGraphic" in2="BackgroundImageFix" result="shape" />
                <feColorMatrix in="SourceAlpha" type="matrix" values="0 0 0 0 0 0 0 0 0 0 0 0 0 0 0 0 0 0 127 0"
                    result="hardAlpha" />
                <feOffset dy="1" />
                <feGaussianBlur stdDeviation="0.5" />
                <feComposite in2="hardAlpha" operator="arithmetic" k2="-1" k3="1" />
                <feColorMatrix type="matrix" values="0 0 0 0 0 0 0 0 0 0 0 0 0 0 0 0 0 0 0.13 0" />
                <feBlend mode="normal" in2="shape" result="effect1_innerShadow_201_111" />
            </filter>
        </defs>
    </svg>

    <svg id="eye" fill="none" xmlns="http://www.w3.org/2000/svg">
        <rect width="68" height="68" rx="34" fill="#C2F5FF" />
        <path
            d="M6.06365 35.2703L6.06519 35.273C11.8167 45.1958 22.5591 51.3889 34 51.3889C45.4394 51.3889 56.1832 45.2593 61.9355 35.2718L61.9363 35.2703L62.4341 34.3992L62.5759 34.1511L62.4341 33.903L61.9364 33.0319L61.9348 33.0293C56.1833 23.1064 45.4409 16.9133 34 16.9133C22.5591 16.9133 11.8167 23.1064 6.06519 33.0293L6.06518 33.0293L6.06366 33.0319L5.56588 33.903L5.42412 34.1511L5.56588 34.3992L6.06366 35.2703L6.06365 35.2703Z"
            fill="white" stroke="#E4E4E4" />
        <mask id="mask0_3_5610" style="mask-type:alpha" maskUnits="userSpaceOnUse" x="6" y="17" width="56" height="34">
            <path
                d="M34 50.8889C22.7378 50.8889 12.16 44.7911 6.49778 35.0222L6 34.1511L6.49778 33.28C12.16 23.5111 22.7378 17.4133 34 17.4133C45.2622 17.4133 55.84 23.5111 61.5022 33.28L62 34.1511L61.5022 35.0222C55.84 44.8533 45.2622 50.8889 34 50.8889Z"
                fill="white" />
        </mask>
        <g mask="url(#mask0_3_5610)">
            <g filter="url(#filter0_i_3_5610)">
                <path
                    d="M34 50.8889C22.7378 50.8889 12.16 44.7911 6.49778 35.0222L6 34.1511L6.49778 33.28C12.16 23.5111 22.7378 17.4133 34 17.4133C45.2622 17.4133 55.84 23.5111 61.5022 33.28L62 34.1511L61.5022 35.0222C55.84 44.8533 45.2622 50.8889 34 50.8889Z"
                    fill="white" />
            </g>
            <circle cx="34.3108" cy="26.1867" r="17.1111" fill="url(#paint0_linear_3_5610)" />
            <path
                d="M39.2891 26.3733C36.3646 26.3733 34.0002 24.0089 34.0002 21.0844C34.0002 20.0267 34.3113 18.9689 34.8713 18.16C34.5602 18.0978 34.2491 18.0978 34.0002 18.0978C29.3957 18.0978 25.7246 21.8311 25.7246 26.3733C25.7246 30.9778 29.4579 34.6489 34.0002 34.6489C38.6046 34.6489 42.2757 30.9156 42.2757 26.3733C42.2757 26.0622 42.2757 25.7511 42.2135 25.5022C41.4046 26.0622 40.4091 26.3733 39.2891 26.3733Z"
                fill="url(#paint1_linear_3_5610)" />
        </g>
        <defs>
            <filter id="filter0_i_3_5610" x="6" y="17.4133" width="60" height="35.4756" filterUnits="userSpaceOnUse"
                color-interpolation-filters="sRGB">
                <feFlood flood-opacity="0" result="BackgroundImageFix" />
                <feBlend mode="normal" in="SourceGraphic" in2="BackgroundImageFix" result="shape" />
                <feColorMatrix in="SourceAlpha" type="matrix" values="0 0 0 0 0 0 0 0 0 0 0 0 0 0 0 0 0 0 127 0"
                    result="hardAlpha" />
                <feOffset dx="4" dy="2" />
                <feGaussianBlur stdDeviation="3" />
                <feComposite in2="hardAlpha" operator="arithmetic" k2="-1" k3="1" />
                <feColorMatrix type="matrix" values="0 0 0 0 0 0 0 0 0 0 0 0 0 0 0 0 0 0 0.15 0" />
                <feBlend mode="normal" in2="shape" result="effect1_innerShadow_3_5610" />
            </filter>
            <linearGradient id="paint0_linear_3_5610" x1="34.3108" y1="9.07556" x2="34.3108" y2="43.2978"
                gradientUnits="userSpaceOnUse">
                <stop stop-color="#004980" />
                <stop offset="1" stop-color="#C2F5FF" />
            </linearGradient>
            <linearGradient id="paint1_linear_3_5610" x1="34.0002" y1="18.0978" x2="34.0002" y2="34.6489"
                gradientUnits="userSpaceOnUse">
                <stop stop-color="#161616" />
                <stop offset="1" stop-color="#0B004B" />
            </linearGradient>
        </defs>
    </svg>

    <svg id="cards-pair" fill="none" xmlns="http://www.w3.org/2000/svg">
        <rect width="68" height="68" rx="34" fill="#C2F5FF" />
        <rect x="31.7295" y="9" width="24.9566" height="34.761" rx="2" transform="rotate(15 31.7295 9)"
            fill="url(#paint0_linear_0_1)" stroke="#E4E4E4" />
        <path fill-rule="evenodd" clip-rule="evenodd"
            d="M38.5302 33.4852C38.4143 33.3327 38.2972 33.1797 38.1797 33.0262C36.5408 30.8843 34.8288 28.6471 35.3027 26.6581C35.8981 24.6731 37.4389 24.3711 38.6234 24.6885C39.3167 24.8742 40.0048 25.4818 40.4186 26.3021C41.1243 25.7818 41.9569 25.5817 42.6502 25.7675C43.8346 26.0849 45.1365 27.1485 44.6596 29.1653C44.0534 31.1989 41.3849 32.3165 38.8199 33.3908C38.7345 33.4265 38.6492 33.4622 38.5641 33.4979C38.558 33.5006 38.552 33.5032 38.5459 33.5058C38.5458 33.5057 38.5458 33.5057 38.5458 33.5056C38.5457 33.5057 38.5456 33.5057 38.5455 33.5057C38.5404 33.4989 38.5352 33.492 38.5302 33.4852Z"
            fill="#FF4545" />
        <rect x="9.80664" y="24.6251" width="24.9566" height="34.761" rx="2" transform="rotate(-15 9.80664 24.6251)"
            fill="white" stroke="#E4E4E4" />
        <path fill-rule="evenodd" clip-rule="evenodd"
            d="M25.1215 35.4952C24.353 34.9918 23.4534 34.8097 22.7601 34.9955C21.5757 35.3129 20.3923 36.3448 20.8692 38.3615C21.4533 40.321 24.0545 41.4026 26.5447 42.438C26.7244 42.5127 26.9035 42.5872 27.0812 42.6617C27.0879 42.6646 27.0945 42.6675 27.1012 42.6703C27.1013 42.6702 27.1013 42.6702 27.1013 42.6701C27.1014 42.6702 27.1015 42.6702 27.1016 42.6703C27.1076 42.6624 27.1135 42.6545 27.1193 42.6466C27.1732 42.5756 27.2272 42.5046 27.2813 42.4335C28.9656 40.2207 30.7177 37.9186 30.2259 35.8543C29.6306 33.8693 27.9713 33.5991 26.7868 33.9164C26.0935 34.1022 25.4725 34.6918 25.1215 35.4952Z"
            fill="#FF4545" />
        <defs>
            <linearGradient id="paint0_linear_0_1" x1="41.9795" y1="17.0218" x2="32.1751" y2="25.0435"
                gradientUnits="userSpaceOnUse">
                <stop stop-color="white" />
                <stop offset="1" stop-color="#F0F0F0" />
            </linearGradient>
        </defs>
    </svg>


</svg>