<svg>

    <symbol id="thumb_up" viewBox="0 0 48 48" fill="none" xmlns="http://www.w3.org/2000/svg">
        <path
            d="M2 42H10V18H2V42ZM46 20C46 17.79 44.21 16 42 16H29.37L31.28 6.86C31.32 6.66 31.35 6.45 31.35 6.23C31.35 5.4 31.01 4.65 30.47 4.11L28.34 2L15.17 15.17C14.45 15.9 14 16.9 14 18V38C14 40.21 15.79 42 18 42H36C37.66 42 39.08 40.99 39.68 39.56L45.71 25.46C45.89 25 46 24.51 46 24V20.17L45.98 20.15L46 20Z"
            fill="currentColor" />
    </symbol>

    <symbol id="save" viewBox="0 0 48 48" fill="none" xmlns="http://www.w3.org/2000/svg">
        <path
            d="M34 6H10C7.79 6 6 7.79 6 10V38C6 40.21 7.79 42 10 42H38C40.21 42 42 40.21 42 38V14L34 6ZM24 38C20.69 38 18 35.31 18 32C18 28.69 20.69 26 24 26C27.31 26 30 28.69 30 32C30 35.31 27.31 38 24 38ZM30 18H10V10H30V18Z"
            fill="currentColor" />

    </symbol>

</svg>